<svg class="w-30 h-10 fill-current" viewBox="0 0 114.99999 24" xmlns="http://www.w3.org/2000/svg"><path d="m 100.21864,7.5073981 c -0.25405,0 -0.50022,0.222487 -0.50022,0.501778 v 1.658297 c 0,0.27929 0.24617,0.5002279 0.50022,0.5002279 h 4.66794 c 0.067,0 0.0944,0.0091 0.10542,0.01395 -7.3e-4,0.0119 -0.005,0.04105 -0.0372,0.101286 l -6.03684,10.644312 -0.0021,0.0057 c -0.0513,0.102592 -0.08557,0.247265 -0.0083,0.384989 0.0775,0.137724 0.23614,0.189653 0.36535,0.189653 h 2.19935 c 0.25405,0 0.4472,-0.132095 0.57413,-0.322461 l 0.006,-0.0078 7.39025,-13.0839549 h -0.002 c 0.0621,-0.10867 0.10711,-0.275219 0.0119,-0.418063 -0.0952,-0.142845 -0.24448,-0.167948 -0.36329,-0.167948 z m -51.952898,5.17e-4 c -0.131232,0 -0.283153,0.04409 -0.370003,0.178283 -0.07865,0.121484 -0.06819,0.260285 -0.02842,0.373621 v 0.02119 l 0.0072,0.01395 5.992916,13.0544999 v 0.0036 l 0.0067,0.02119 c 0.103751,0.20741 0.31659,0.311092 0.517281,0.311092 0.205364,0 0.400705,-0.120373 0.496093,-0.311092 l 0.821139,-1.820561 0.0072,-0.01085 v -0.0124 c 0.07772,-0.197594 0.07668,-0.417077 -0.0072,-0.612883 v -0.0036 L 50.718823,7.8887701 c -0.101624,-0.237015 -0.326118,-0.380855 -0.573092,-0.380855 z m 10.378695,0 c -0.25312,0 -0.493041,0.140252 -0.597379,0.377238 l -3.103687,6.6915809 v 0.02429 c -0.07126,0.188757 -0.07126,0.395185 0,0.583943 v 0.02429 l 0.996322,2.155941 h -0.0031 c 0.02453,0.05718 0.06285,0.117442 0.118339,0.167948 0.0555,0.05051 0.132513,0.08733 0.223759,0.08733 0.09124,0 0.168493,-0.03675 0.223759,-0.08733 0.05526,-0.05058 0.09082,-0.110964 0.115238,-0.167948 l 4.270024,-9.2702349 c 0.05027,-0.117278 0.06909,-0.275151 -0.01757,-0.408761 -0.08699,-0.134364 -0.239251,-0.178283 -0.370003,-0.178283 z m 9.659359,0 c -0.933352,0 -1.79028,0.169612 -2.570903,0.509012 -0.780622,0.322431 -1.45907,0.788994 -2.036051,1.399915 -0.560012,0.6109219 -1.00152,1.3488629 -1.32395,2.2143349 -0.305461,0.848502 -0.457854,1.798847 -0.457854,2.850989 0,1.052144 0.152393,2.010838 0.457854,2.87631 0.32243,0.865473 0.763938,1.603932 1.32395,2.214852 0.56001,0.610922 1.230109,1.085835 2.01073,1.425236 0.780622,0.339401 1.645901,0.509013 2.596224,0.509013 0.950322,0 1.815602,-0.169612 2.596224,-0.509013 0.797591,-0.339401 1.476557,-0.814314 2.036568,-1.425236 0.560011,-0.61092 0.992651,-1.349379 1.298112,-2.214852 0.305462,-0.865472 0.45837,-1.824166 0.45837,-2.87631 0,-1.052142 -0.161262,-2.002487 -0.483692,-2.850989 -0.305461,-0.865472 -0.7381,-1.603413 -1.298111,-2.2143349 -0.560012,-0.610921 -1.238976,-1.077484 -2.036569,-1.399915 -0.780622,-0.3394 -1.637549,-0.509012 -2.570902,-0.509012 z m 9.850045,0 c -0.130195,0 -0.264854,0.04114 -0.363286,0.139526 -0.09872,0.09869 -0.14056,0.234169 -0.14056,0.363802 v 9.4800419 c 0,0.129622 0.04204,0.261224 0.14056,0.359668 0.09844,0.09842 0.233104,0.140043 0.363286,0.140043 h 1.78232 c 0.130196,0 0.265102,-0.04191 0.363285,-0.140043 0.09697,-0.09693 0.143144,-0.227049 0.143144,-0.359668 V 8.0112431 c 0,-0.13261 -0.04589,-0.26661 -0.143144,-0.363802 -0.09819,-0.09813 -0.233098,-0.139526 -0.363285,-0.139526 z m 9.039758,0 c -0.130196,0 -0.265355,0.04164 -0.363285,0.139526 -0.09722,0.09718 -0.143144,0.231185 -0.143144,0.363802 v 1.628324 c 0,0.132612 0.04614,0.266345 0.143144,0.3632859 0.09693,0.09691 0.231116,0.143143 0.363285,0.143143 h 10.433988 c 0.13218,0 0.263005,-0.04601 0.360185,-0.143143 0.0972,-0.09718 0.146761,-0.2311639 0.146761,-0.3632859 v -1.628324 c 0,-0.132109 -0.04925,-0.26636 -0.146761,-0.363802 -0.09819,-0.09813 -0.229998,-0.139526 -0.360185,-0.139526 z M 68.303796,10.18062 c 1.018203,0 1.807287,0.390365 2.367297,1.170988 0.576982,0.763651 0.86558,1.806895 0.86558,3.130558 0,1.340635 -0.288598,2.401612 -0.86558,3.182235 -0.56001,0.780622 -1.349094,1.170471 -2.367297,1.170471 -1.018202,0 -1.815638,-0.389849 -2.392619,-1.170471 -0.56001,-0.780623 -0.840259,-1.8416 -0.840259,-3.182235 0,-1.323663 0.280249,-2.366907 0.840259,-3.130558 0.576981,-0.780623 1.374417,-1.170988 2.392619,-1.170988 z m 23.186181,0.575158 c -0.262608,0 -0.503326,0.216876 -0.503328,0.503329 l 0.0088,9.530684 c 2e-6,0.286455 0.240723,0.503329 0.503328,0.503329 h 1.785421 c 0.130195,0 0.262759,-0.04264 0.360185,-0.140043 0.09722,-0.09718 0.143267,-0.231168 0.143144,-0.363286 l -0.0088,-9.530684 c -1.23e-4,-0.132129 -0.04665,-0.263232 -0.143144,-0.359668 -0.09668,-0.09663 -0.228505,-0.143661 -0.360185,-0.143661 z m -13.336136,7.898743 c -0.132181,0 -0.26585,0.04626 -0.363286,0.143661 -0.09847,0.09844 -0.14056,0.233652 -0.14056,0.363285 v 1.628324 c 0,0.129622 0.04204,0.264842 0.14056,0.363286 0.09844,0.09842 0.233104,0.140043 0.363286,0.140043 h 8.099764 c 0.130195,0 0.265106,-0.04189 0.363285,-0.140043 0.09722,-0.09718 0.14366,-0.231172 0.14366,-0.363286 v -1.628324 c 0,-0.132109 -0.04639,-0.266094 -0.14366,-0.363285 -0.09718,-0.09717 -0.231116,-0.143661 -0.363285,-0.143661 z m 26.269709,0.192753 c -0.2376,0 -0.47556,0.11391 -0.60358,0.337964 v 0.0021 l -0.96686,1.736328 0.0119,-0.01602 c -0.067,0.100503 -0.12013,0.248037 -0.045,0.398426 0.0751,0.15039 0.23975,0.201538 0.36896,0.201538 h 5.99809 c 0.12923,0 0.2639,-0.04479 0.35967,-0.14056 0.0958,-0.09577 0.14056,-0.230441 0.14056,-0.359668 v -1.65833 c 0,-0.129211 -0.0448,-0.265438 -0.14056,-0.361218 -0.0958,-0.09578 -0.23044,-0.14056 -0.35967,-0.14056 z"></path><path d="m 42.883601,9.6008431 -1.095541,0.0057 c -0.237813,0.0012 -0.429947,0.190251 -0.429947,0.4258129 v 3.29799 c 0,0.235565 0.192134,0.426017 0.429947,0.42478 l 1.095541,-0.0057 c 0.237818,-0.0012 0.428914,-0.189215 0.428914,-0.42478 v -3.29799 c 0,-0.2355639 -0.191096,-0.4270519 -0.428914,-0.4258139 z M 18.614798,10.419915 c -0.678441,0 -1.31603,0.05372 -1.913062,0.16123 -0.597027,0.107524 -1.051141,0.214935 -1.363224,0.322461 l 0.304891,1.97559 c 0.298512,-0.107525 0.685747,-0.200992 1.160653,-0.281637 0.47491,-0.08063 0.996427,-0.120922 1.566312,-0.120922 0.420637,0 0.76732,0.05319 1.038697,0.160713 0.284945,0.107525 0.508451,0.261939 0.671277,0.463538 0.176402,0.188164 0.299064,0.410233 0.366902,0.665592 0.06784,0.255365 0.101286,0.523909 0.101286,0.806153 v 0.403593 h -0.001 v 1.71359 h 0.001 v 2.701127 1.959571 c 0.224248,-0.0241 0.442766,-0.05153 0.65164,-0.08475 0.773423,-0.107525 1.349682,-0.200987 1.72961,-0.281636 v -6.390825 c 0,-0.618253 -0.07451,-1.183228 -0.223759,-1.693953 -0.135685,-0.524172 -0.372882,-0.967781 -0.712101,-1.330668 -0.325647,-0.362882 -0.766596,-0.645379 -1.322917,-0.846977 -0.556322,-0.201606 -1.242078,-0.30179 -2.056205,-0.30179 z m -11.0716756,0.04031 c -0.2790186,0 -0.5482145,0.0075 -0.8123536,0.0186 v 2.106331 c 0.2148375,-0.01694 0.4261675,-0.02842 0.629419,-0.02842 0.4206348,0 0.7733866,0.05991 1.0583332,0.180868 0.2985133,0.107523 0.5291209,0.28982 0.6919479,0.545186 0.176404,0.241925 0.298546,0.564695 0.366385,0.967899 0.08142,0.389769 0.121957,0.866945 0.121957,1.431438 v 5.543847 h 2.4623821 v -5.927286 c 0,-0.712333 -0.07451,-1.364587 -0.223759,-1.955953 C 11.701732,12.73792 11.457452,12.227172 11.104662,11.810528 10.765441,11.380441 10.304225,11.05199 9.7207669,10.823508 9.1373079,10.581585 8.4115288,10.460223 7.5431224,10.460223 Z m 22.7748376,0 c -0.279387,0 -0.548517,0.0076 -0.812871,0.0186 v 2.106848 c 0.215187,-0.01703 0.426347,-0.02894 0.629936,-0.02894 0.420634,0 0.773388,0.05991 1.058333,0.180868 0.298518,0.107523 0.529121,0.28982 0.691948,0.545186 0.176405,0.241925 0.298546,0.564695 0.366386,0.967899 0.08142,0.389769 0.121956,0.866945 0.121956,1.431438 v 5.543847 h 2.463416 v -5.927286 c 0,-0.712333 -0.0745,-1.364587 -0.223759,-1.955953 C 34.477602,12.737919 34.233322,12.227169 33.880533,11.810525 33.54131,11.380438 33.079577,11.051987 32.496121,10.823505 31.91266,10.581582 31.186365,10.46022 30.31796,10.46022 Z m -24.6873824,0.09922 c -0.2091705,0.02331 -0.4132355,0.05063 -0.6113323,0.08217 -0.7598481,0.12096 -1.3771728,0.248521 -1.8520832,0.382923 v 10.201444 h 2.462382 v -8.507491 c 2.193e-4,-3.6e-5 8.138e-4,3.6e-5 0.00103,0 z m 22.7748374,5.17e-4 c -0.208721,0.02324 -0.412526,0.05017 -0.610299,0.08165 -0.759856,0.12096 -1.377689,0.248521 -1.8526,0.382923 v 10.201444 h 2.462382 v -8.507491 h 5.17e-4 z m 15.376839,0.04651 v 2.369365 c 0.176852,0.133198 0.337828,0.293565 0.478524,0.487825 0.461339,0.60481 0.69143,1.431616 0.69143,2.479952 0,1.061777 -0.230091,1.90201 -0.69143,2.52026 -0.447772,0.618248 -1.078778,0.927075 -1.892908,0.927075 -0.814127,0 -1.451719,-0.308827 -1.913062,-0.927075 -0.447773,-0.61825 -0.67231,-1.458483 -0.67231,-2.52026 0,-1.048336 0.224537,-1.875142 0.67231,-2.479952 0.123626,-0.165686 0.261344,-0.307132 0.410311,-0.428397 v -2.406572 c -0.188656,0.05494 -0.374303,0.117895 -0.552937,0.19482 -0.624166,0.255363 -1.167501,0.624095 -1.628842,1.107943 -0.447769,0.483846 -0.800525,1.06845 -1.058333,1.753898 -0.244242,0.672014 -0.366386,1.424966 -0.366386,2.25826 0,0.833299 0.122142,1.592442 0.366386,2.277898 0.257808,0.685446 0.610564,1.270048 1.058333,1.753898 0.447773,0.483847 0.984012,0.860841 1.608171,1.129646 0.624167,0.268803 1.316508,0.40256 2.076359,0.40256 0.759855,0 1.451156,-0.133761 2.075326,-0.40256 0.63773,-0.268805 1.181066,-0.645799 1.628841,-1.129646 0.447771,-0.48385 0.793424,-1.068452 1.037662,-1.753898 0.24424,-0.685456 0.366903,-1.444599 0.366903,-2.277898 0,-0.833294 -0.129242,-1.586246 -0.387056,-2.25826 -0.24424,-0.685448 -0.589892,-1.270052 -1.037663,-1.753898 -0.447769,-0.483848 -0.991108,-0.85258 -1.628841,-1.107943 -0.206127,-0.08877 -0.421449,-0.157524 -0.640788,-0.217041 z m -25.044983,4.147551 c -0.583459,0 -1.146032,0.06093 -1.688786,0.181901 -0.529179,0.107524 -0.998022,0.295503 -1.405082,0.564307 -0.407065,0.255365 -0.732963,0.591557 -0.977201,1.008207 -0.230672,0.416646 -0.345716,0.927394 -0.345716,1.532206 0,0.631686 0.10239,1.162065 0.305925,1.592151 0.217101,0.430089 0.508007,0.779707 0.874365,1.048515 0.379928,0.268802 0.835073,0.463496 1.364258,0.58446 0.529183,0.120943 1.112029,0.181901 1.749764,0.181901 0.287793,0 0.563906,-0.0068 0.833541,-0.01757 v -1.937349 c -0.202453,0.0079 -0.390856,0.01912 -0.629419,0.01912 -0.624167,0 -1.119858,-0.107405 -1.486214,-0.322461 -0.366356,-0.228487 -0.548804,-0.631812 -0.548804,-1.209745 0,-0.295685 0.0674,-0.537378 0.203088,-0.725537 0.135703,-0.201601 0.312583,-0.35653 0.529684,-0.464055 0.230669,-0.107542 0.48103,-0.181374 0.752409,-0.221692 0.284943,-0.04031 0.563195,-0.05994 0.834574,-0.05994 0.120048,0 0.232681,0.0055 0.344682,0.01137 V 14.80002 c -0.245786,-0.02816 -0.484243,-0.04599 -0.711068,-0.04599 z"></path></svg>